<svg width="26" height="26" viewBox="0 0 26 26" fill="none" xmlns="http://www.w3.org/2000/svg">
<path d="M24.2941 13C24.2941 19.2376 19.2376 24.2941 13 24.2941C6.76242 24.2941 1.70587 19.2376 1.70587 13C1.70587 6.76242 6.76242 1.70587 13 1.70587C19.2376 1.70587 24.2941 6.76242 24.2941 13Z" fill="white"/>
<path d="M24.2941 13C24.2941 19.2376 19.2376 24.2941 13 24.2941C6.76242 24.2941 1.70587 19.2376 1.70587 13C1.70587 6.76242 6.76242 1.70587 13 1.70587C19.2376 1.70587 24.2941 6.76242 24.2941 13Z" fill="white"/>
<path d="M7.35302 12C6.80074 12 6.35302 12.4477 6.35302 13C6.35302 13.5523 6.80074 14 7.35302 14V12ZM18.6471 14C19.1994 14 19.6471 13.5523 19.6471 13C19.6471 12.4477 19.1994 12 18.6471 12V14ZM12.0001 18.6471C12.0001 19.1994 12.4478 19.6471 13.0001 19.6471C13.5524 19.6471 14.0001 19.1994 14.0001 18.6471L12.0001 18.6471ZM14 7.35301C14 6.80073 13.5523 6.35302 13 6.35302C12.4477 6.35303 12 6.80075 12 7.35303L14 7.35301ZM23.2941 13C23.2941 18.6853 18.6853 23.2941 13 23.2941V25.2941C19.7898 25.2941 25.2941 19.7898 25.2941 13H23.2941ZM13 23.2941C7.3147 23.2941 2.70587 18.6853 2.70587 13H0.705872C0.705872 19.7898 6.21013 25.2941 13 25.2941V23.2941ZM2.70587 13C2.70587 7.3147 7.3147 2.70587 13 2.70587V0.705872C6.21013 0.705872 0.705872 6.21013 0.705872 13H2.70587ZM13 2.70587C18.6853 2.70587 23.2941 7.3147 23.2941 13H25.2941C25.2941 6.21013 19.7898 0.705872 13 0.705872V2.70587ZM7.35302 14H13V12H7.35302V14ZM13 14H18.6471V12H13V14ZM14.0001 18.6471L14 13L12 13L12.0001 18.6471L14.0001 18.6471ZM14 13L14 7.35301L12 7.35303L12 13L14 13Z" fill="black"/>
</svg>
